<?xml version="1.0" encoding="utf-8"?>
<!-- Generator: Adobe Illustrator 17.0.2, SVG Export Plug-In . SVG Version: 6.00 Build 0)  -->
<!DOCTYPE svg PUBLIC "-//W3C//DTD SVG 1.1//EN" "http://www.w3.org/Graphics/SVG/1.1/DTD/svg11.dtd">
<svg version="1.1" id="Layer_1" xmlns="http://www.w3.org/2000/svg" xmlns:xlink="http://www.w3.org/1999/xlink" x="0px" y="0px"
	 width="40px" height="32px" viewBox="0 0 40 32" enable-background="new 0 0 40 32" xml:space="preserve">
<path d="M1.183,28.34c0.943-0.05,1.61-0.202,2.001-0.449c0.656-0.416,0.984-1.206,0.984-2.364V6.138c0-1.125-0.294-1.889-0.88-2.291
	C2.931,3.615,2.229,3.44,1.183,3.324V2.307h11.958v1.016c-1.035,0.065-1.754,0.22-2.157,0.466c-0.667,0.414-1.001,1.197-1.001,2.349
	v8.306h8.421V6.138c0-1.152-0.316-1.927-0.949-2.329c-0.391-0.246-1.121-0.408-2.191-0.485V2.307h12.027v1.016
	c-1.035,0.091-1.742,0.259-2.122,0.505C24.536,4.229,24.22,5,24.22,6.138v19.389c0,1.171,0.351,1.966,1.053,2.384
	c0.403,0.247,1.076,0.391,2.018,0.429v1.016H15.264V28.34c1.012-0.038,1.731-0.195,2.157-0.469c0.656-0.416,0.983-1.198,0.983-2.345
	v-9.225H9.983v9.225c0,1.186,0.356,1.986,1.07,2.404c0.414,0.234,1.11,0.371,2.088,0.409v1.016H1.183V28.34z M29.549,28.752
	c1.28,0,2.1-0.175,2.461-0.523c0.361-0.35,0.542-1.013,0.542-1.991v-9.724c0-0.624-0.072-1.068-0.215-1.331
	c-0.144-0.263-0.408-0.394-0.794-0.394c-0.205,0-0.521,0.07-0.948,0.209c-0.27,0.082-0.64,0.214-1.107,0.394v-0.641l6.362-2.749
	h0.443v14.383c0,0.92,0.148,1.544,0.443,1.873c0.295,0.328,1.05,0.493,2.264,0.493v0.604h-9.45L29.549,28.752L29.549,28.752z"/>
</svg>
