<?xml version="1.0" encoding="utf-8"?>
<!-- Generator: Adobe Illustrator 17.0.2, SVG Export Plug-In . SVG Version: 6.00 Build 0)  -->
<!DOCTYPE svg PUBLIC "-//W3C//DTD SVG 1.1//EN" "http://www.w3.org/Graphics/SVG/1.1/DTD/svg11.dtd">
<svg version="1.1" id="Layer_1" xmlns="http://www.w3.org/2000/svg" xmlns:xlink="http://www.w3.org/1999/xlink" x="0px" y="0px"
	 width="40px" height="32px" viewBox="0 0 40 32" enable-background="new 0 0 40 32" xml:space="preserve">
<path d="M1,28.34c0.943-0.05,1.61-0.202,2.001-0.449c0.656-0.416,0.984-1.206,0.984-2.364V6.138c0-1.125-0.294-1.889-0.88-2.291
	C2.748,3.615,2.046,3.44,1,3.324V2.307h11.958v1.016c-1.035,0.065-1.754,0.22-2.157,0.466C10.134,4.203,9.8,4.986,9.8,6.138v8.306
	h8.421V6.138c0-1.152-0.316-1.927-0.949-2.329c-0.391-0.246-1.121-0.408-2.191-0.485V2.307h12.027v1.016
	c-1.035,0.091-1.742,0.259-2.122,0.505C24.353,4.229,24.037,5,24.037,6.138v19.389c0,1.171,0.351,1.966,1.053,2.384
	c0.403,0.247,1.076,0.391,2.018,0.429v1.016H15.081V28.34c1.012-0.038,1.731-0.195,2.157-0.469c0.656-0.416,0.983-1.198,0.983-2.345
	v-9.225H9.8v9.225c0,1.186,0.356,1.986,1.07,2.404c0.414,0.234,1.11,0.371,2.088,0.409v1.016H1V28.34z M27.762,28.805
	c2.555-2.766,4.22-4.693,4.993-5.779c1.188-1.641,1.781-3.094,1.781-4.36c0-0.751-0.228-1.452-0.685-2.104
	c-0.458-0.653-1.167-0.979-2.128-0.979c-0.844,0-1.555,0.293-2.133,0.879c-0.313,0.321-0.59,0.75-0.832,1.289h-0.657
	c0.532-1.664,1.267-2.897,2.204-3.698c0.938-0.801,1.993-1.202,3.165-1.202c1.11,0,2.118,0.385,3.024,1.155
	c0.907,0.77,1.36,1.901,1.36,3.394c0,0.781-0.212,1.582-0.639,2.403c-0.426,0.821-1.144,1.711-2.152,2.673l-3.658,3.494v0.199h3.412
	c1.189,0,1.964-0.097,2.328-0.293c0.363-0.196,0.729-0.719,1.096-1.571h0.575l-1.078,5.052h-9.976
	C27.762,29.357,27.762,28.805,27.762,28.805z"/>
</svg>
