<?xml version="1.0" encoding="utf-8"?>
<!-- Generated by IcoMoon.io -->
<!DOCTYPE svg PUBLIC "-//W3C//DTD SVG 1.1//EN" "http://www.w3.org/Graphics/SVG/1.1/DTD/svg11.dtd">
<svg version="1.1" xmlns="http://www.w3.org/2000/svg" xmlns:xlink="http://www.w3.org/1999/xlink" width="32" height="32" viewBox="0 0 32 32">
<g>
	<line stroke-width="1" x1="" y1="" x2="" y2="" stroke="#449FDB" opacity=""></line>
</g>
	<path d="M21.667 20.323q0.542 0 0.938 0.396l3.771 3.771q0.396 0.396 0.396 0.948 0 0.542-0.396 0.938t-0.938 0.396q-0.552 0-0.948-0.396l-3.771-3.771q-0.385-0.385-0.385-0.948 0-0.552 0.391-0.943t0.943-0.391zM10.344 20.323q0.552 0 0.943 0.391t0.391 0.943-0.396 0.948l-3.771 3.771q-0.396 0.396-0.938 0.396-0.552 0-0.943-0.391t-0.391-0.943q0-0.563 0.385-0.948l3.771-3.771q0.396-0.396 0.948-0.396zM2.667 14.667h5.333q0.552 0 0.943 0.391t0.391 0.943-0.391 0.943-0.943 0.391h-5.333q-0.552 0-0.943-0.391t-0.391-0.943 0.391-0.943 0.943-0.391zM16 22.667q0.552 0 0.943 0.391t0.391 0.943v5.333q0 0.552-0.391 0.943t-0.943 0.391-0.943-0.391-0.391-0.943v-5.333q0-0.552 0.391-0.943t0.943-0.391zM6.573 5.229q0.542 0 0.938 0.396l3.771 3.771q0.396 0.396 0.396 0.938 0 0.552-0.391 0.943t-0.943 0.391q-0.563 0-0.948-0.385l-3.771-3.771q-0.385-0.385-0.385-0.948 0-0.552 0.391-0.943t0.943-0.391zM24 14.667h5.333q0.552 0 0.943 0.391t0.391 0.943-0.391 0.943-0.943 0.391h-5.333q-0.552 0-0.943-0.391t-0.391-0.943 0.391-0.943 0.943-0.391zM16 1.333q0.552 0 0.943 0.391t0.391 0.943v5.333q0 0.552-0.391 0.943t-0.943 0.391-0.943-0.391-0.391-0.943v-5.333q0-0.552 0.391-0.943t0.943-0.391zM25.438 5.229q0.542 0 0.938 0.396t0.396 0.938q0 0.552-0.396 0.948l-3.771 3.771q-0.385 0.385-0.938 0.385-0.573 0-0.953-0.38t-0.38-0.953q0-0.552 0.385-0.938l3.771-3.771q0.396-0.396 0.948-0.396z" fill="#000000"></path>
</svg>
